<svg xmlns="http://www.w3.org/2000/svg" width="335.06" height="313.088" viewBox="0 0 335.06 313.088">
  <g id="Group_1072" data-name="Group 1072" transform="translate(-59.242 -18.576)">
    <path id="Path_84" data-name="Path 84" d="M366.646,246.431C339.093,258.6,322.79,280.3,309.588,309.574c0,.115-.115.115-.115.23a2.512,2.512,0,0,1-.344.574,25.71,25.71,0,0,1-11.251,12.284c-11.366,6.2-27.094,4.363-38,1.722a102.111,102.111,0,0,1-12.514-3.789c-.23-.115-.459-.115-.689-.23-23.42-7.118-15.384,15.5-53.155,19.861a72.416,72.416,0,0,1-10.1.344h0c-19.287-.8-42.134-8.955-59.814-16.647-9.873-4.363-18.254-8.5-23.306-11.251a27.984,27.984,0,0,1-11.94-11.71c-10.218-18.828-2.755-43.167,3.559-57.4a31.657,31.657,0,0,0-1.148-27.668c-4.937-9.3-13.777-19.747-22.617-30.309s-9.184-39.493-8.84-45.578c11.366-190.348,279.9-91.615,319.046-45.348C406.254,127.607,394.429,234.032,366.646,246.431Z" transform="translate(0.014 -8.951)" fill="#ffeae8"/>
    <g id="Group_771" transform="translate(123.535 127.425)">
      <path id="Path_85" d="M303.82,475.282s-10.218,20.435-20.55,34.557c-4.133,5.625-8.266,10.218-11.825,12.169a28.2,28.2,0,0,0-8.84,8.036,65.152,65.152,0,0,0-9.184,18.828L226.9,508.691s.918-39.264,4.133-45.808c4.592-9.529,6.888-28.816,8.61-32.72,1.378-2.87,5.051-17.565,5.511-18.713a3.9,3.9,0,0,1,3.1-1.148,4.874,4.874,0,0,1,4.133,3.9,43.916,43.916,0,0,1-.574,22.158c1.033,10.1-1.952,17.565.115,19.632.115.115.23,0,.459-.115,3.674-2.3,26.291-35.475,29.161-36.164C284.3,419.142,303.82,475.282,303.82,475.282Z" transform="translate(-192.803 -395.837)" fill="#ffb27d"/>
      <path id="Union_6" data-name="Union 6" d="M2434.223,185.834a1.606,1.606,0,0,1,.345-.574l.057-.114h-.172c15.269-32.605,28.587-60.044,28.587-60.044s38.116,1.147,39.722,18.254c0,0-.344,17.795-1.377,41.79,0,.574-.115,2.87-.689,13.317-.114,2.525-2.641,3.788-6.658,4.018C2474.749,201.677,2451.9,193.526,2434.223,185.834Z" transform="translate(-2434.223 1.759)" fill="#456079"/>
      <path id="Path_87" d="M317.52,407.929l-8.266,12.055-8.036,11.825a1.637,1.637,0,0,1-1.722.689c-1.952-.23-4.363-2.985-6.2-4.477l-.23-.115a5.931,5.931,0,0,1-.8-8.151l12.284-14.925h0l3.674-4.363a5.931,5.931,0,0,1,8.151-.8l.23.115A5.639,5.639,0,0,1,317.52,407.929Z" transform="translate(-183.312 -397.596)" fill="#ffb27d"/>
      <path id="Path_88" d="M308.159,419.154l-8.036,11.825a1.637,1.637,0,0,1-1.722.689L303.681,404C303.681,404.115,304.485,416.514,308.159,419.154Z" transform="translate(-182.216 -396.767)" fill="#efa26f"/>
      <path id="Path_89" d="M280.212,497.326c-4.133,5.625-8.266,10.218-11.825,12.169a28.2,28.2,0,0,0-8.84,8.036c-2.755-1.263-5.97-2.87-9.07-4.363a5.2,5.2,0,0,1-2.411-6.888,5.97,5.97,0,0,1,2.181-2.3l.115-.115c3.444-1.952,7-9.07,7-9.07Z" transform="translate(-189.745 -383.324)" fill="#efa26f"/>
      <path id="Path_90" d="M242.881,412l-2.181,8.725a4.144,4.144,0,0,0,3.1.115C244.948,420.151,245.981,412.459,242.881,412Z" transform="translate(-190.759 -395.583)" fill="#ffc197"/>
      <path id="Rectangle_203" d="M259.333,397.7h42.019a10.29,10.29,0,0,1,10.332,10.333v97.355a10.29,10.29,0,0,1-10.332,10.333H259.333A10.29,10.29,0,0,1,249,505.388V408.033A10.29,10.29,0,0,1,259.333,397.7Z" transform="translate(-189.531 -397.7)" fill="gray"/>
      <path id="Path_91" d="M308.185,406.385v99.192a6.125,6.125,0,0,1-6.085,6.085H257.785a6.125,6.125,0,0,1-6.085-6.085V406.385a6.125,6.125,0,0,1,6.085-6.085H302.1A6.051,6.051,0,0,1,308.185,406.385Z" transform="translate(-189.007 -397.315)" fill="#fff"/>
      <path id="Rectangle_204" d="M268.685,398.3h18.139a3.039,3.039,0,0,1,2.985,2.985h0a3.039,3.039,0,0,1-2.985,2.985H268.685a3.039,3.039,0,0,1-2.985-2.985h0A3.039,3.039,0,0,1,268.685,398.3Z" transform="translate(-187.058 -397.611)" fill="gray"/>
      <path id="Path_92" d="M312.721,447.736l-1.263.459-8.266,3.1c-.23.115-.344.115-.574.23a5.7,5.7,0,0,1-6.659-3.444l-.115-.344a5.7,5.7,0,0,1,3.215-7.233l7.692-2.87.574-.23,1.263-.459a5.694,5.694,0,0,1,7.233,3.215l.115.344A5.6,5.6,0,0,1,312.721,447.736Z" transform="translate(-182.645 -391.94)" fill="#ffb27d"/>
      <path id="Path_93" d="M305.751,447.359a29.725,29.725,0,0,1-5.166,1.607,2.442,2.442,0,0,1-1.722-.8,5.822,5.822,0,0,1-1.033-1.837,4.08,4.08,0,0,1-.23-1.148V443.8a1.461,1.461,0,0,1,.8-1.033h0a29.379,29.379,0,0,1,4.937-1.952,2.084,2.084,0,0,1,2.641,1.148l.23.459.918,2.411A2.081,2.081,0,0,1,305.751,447.359Z" transform="translate(-182.335 -391.333)" fill="#ffd3b6"/>
      <path id="Path_94" d="M305.648,447.181a29.726,29.726,0,0,1-5.166,1.607,2.442,2.442,0,0,1-1.722-.8c-.115-.115-.115-.344-.23-.459a4.079,4.079,0,0,1-.23-1.148V445a1.46,1.46,0,0,1,.8-1.033h0a29.383,29.383,0,0,1,4.937-1.952,2.277,2.277,0,0,1,2.066.344l.918,2.411A2.01,2.01,0,0,1,305.648,447.181Z" transform="translate(-182.231 -391.156)" fill="#ffc197"/>
      <path id="Path_95" d="M308.74,457.411l-6.314,1.722a3.6,3.6,0,0,1-4.477-2.526l-.23-.689a3.6,3.6,0,0,1,2.526-4.477l6.314-1.722a3.6,3.6,0,0,1,4.477,2.526l.23.689A3.693,3.693,0,0,1,308.74,457.411Z" transform="translate(-182.339 -390.02)" fill="#ffb27d"/>
      <path id="Path_96" d="M305.144,456.774a26.729,26.729,0,0,1-4.363.918,2.159,2.159,0,0,1-1.722-1.378,4.813,4.813,0,0,1-.459-1.837,3.179,3.179,0,0,1,.115-1.033,1.035,1.035,0,0,1,.689-.689h0a25.693,25.693,0,0,1,4.248-1.148,1.643,1.643,0,0,1,2.067,1.148l.115.574.459,1.722a1.3,1.3,0,0,1-1.148,1.722Z" transform="translate(-182.187 -389.727)" fill="#ffd3b6"/>
      <path id="Path_97" d="M305.1,456.652a26.726,26.726,0,0,1-4.363.918,2.159,2.159,0,0,1-1.722-1.378,2.237,2.237,0,0,1-.115-.918,3.177,3.177,0,0,1,.115-1.033,1.035,1.035,0,0,1,.689-.689h0a25.7,25.7,0,0,1,4.248-1.148,2.1,2.1,0,0,1,1.952.689l.459,1.722a1.489,1.489,0,0,1-1.263,1.837Z" transform="translate(-182.142 -389.605)" fill="#ffc197"/>
      <path id="Path_98" d="M216.7,522.31s13.088,12.514,21.928,17.336l6.659-4.707v7s13.088,2.3,17.221,0V522.884L225.655,504.4Z" transform="translate(-194.313 -381.902)" fill="#244461"/>
      <path id="Path_99" d="M265.9,541.871c-5.051,1.033-16.073-2.985-16.073-2.985l1.722-16.991-12.4,14.121c-6.314-2.3-16.188-8.5-21.928-12.284-2.87-1.837-4.822-3.215-4.822-3.215,8.266-13.318,16.532-25.717,16.532-25.717,2.411,4.822,8.151,9.07,14.466,12.514a127.851,127.851,0,0,0,22.158,8.955C265.555,526.372,265.9,541.871,265.9,541.871Z" transform="translate(-194.95 -383.324)" fill="#fff"/>
      <path id="Path_100" d="M312.559,437.5h-.115l-8.381,2.181a6.805,6.805,0,0,1-8.381-4.363l-.459-1.722A6.416,6.416,0,0,1,299.7,425.9l2.755-.689,5.625-1.378a6.805,6.805,0,0,1,8.381,4.363l.459,1.722A6.331,6.331,0,0,1,312.559,437.5Z" transform="translate(-182.714 -393.871)" fill="#ffb27d"/>
      <path id="Path_101" d="M308,434.8l-4.018,1.837h0c-.115,0-.344.115-.459.115h-.344a.643.643,0,0,1-.574-.689c0-.115,0-.115.115-.23a4.489,4.489,0,0,0,.23-2.755l-.115-.344h0l-.344-1.148a4.471,4.471,0,0,0-1.492-2.3l-.23-.23a1.04,1.04,0,0,1-.23-1.607,1.146,1.146,0,0,1,.574-.459h0l4.477-.689A2.086,2.086,0,0,1,308,427.912l.344,1.263.8,2.755C309.377,433.194,309.147,434.456,308,434.8Z" transform="translate(-181.942 -393.471)" fill="#ffd3b6"/>
      <path id="Path_102" d="M307.9,434.566l-4.018,1.837h0a4.074,4.074,0,0,1-.8.115.643.643,0,0,1-.574-.689c0-.115,0-.115.115-.23a4.49,4.49,0,0,0,.23-2.755l-.115-.344h0l-.344-1.148a4.472,4.472,0,0,0-1.492-2.3,1.054,1.054,0,0,1,.689-.459h0l4.477-.689a2.013,2.013,0,0,1,2.3,1.148l.8,2.755C309.281,432.959,309.051,434.222,307.9,434.566Z" transform="translate(-181.846 -393.236)" fill="#ffc197"/>
      <path id="Path_103" d="M249.689,479.367s-1.837-15.843-3.444-18.943-3.1-9.3-.459-13.892S249.23,433.1,249.23,433.1c1.033,10.1-1.952,17.565.115,19.632.115.115.23,0,.459-.115Z" transform="translate(-190.22 -392.459)" fill="#efa26f"/>
      <path id="Icon_ionic-ios-search" d="M302.045,466.54l-11.685-15.081a19.238,19.238,0,1,0-3.3,2.6l11.586,14.981a2.071,2.071,0,0,0,2.9.4A2.006,2.006,0,0,0,302.045,466.54Zm-26.966-13.883a15.121,15.121,0,1,1,11.186-3.1A15.509,15.509,0,0,1,275.078,452.657Z" transform="translate(-186.044 -392.009)" fill="#fc7d6e"/>
      <path id="Path_87-2" data-name="Path 87" d="M369.248,562.066a2.514,2.514,0,0,1-.344.574,25.71,25.71,0,0,1-11.251,12.284h-35.59c-2.3-1.607-14.58-9.873-19.632-16.073-1.033-1.263-4.592-11.366-7.462-20.091v-.115a10.679,10.679,0,0,1-.459-1.492c-1.837-5.74-3.444-10.677-3.674-11.71-.115-.689-.115-1.263-.23-1.952h0v-.23c-.115-3.674,0-10.792.23-16.532v-1.148c0-.918.115-1.837.115-2.641v-.23c.115-2.181.115-3.789.115-4.363V498a4.434,4.434,0,0,1,1.837-.344,6.671,6.671,0,0,1,3.789,1.378,8.647,8.647,0,0,1,2.066,3.444c0,.115,0,.115.115.23a22.661,22.661,0,0,1,.918,2.985c.115.23.115.459.23.689,1.378,5.166,2.411,11.251,2.87,12.858.8,2.641,10.907,14.351,11.481,15.04h0V515.914l-7.577-20.206-1.263-3.444-1.837-4.822L302.431,484l-.23-.689a75.639,75.639,0,0,1-4.363-8.61,42.385,42.385,0,0,1-2.181-6.429c-.115-.459-.23-1.033-.344-1.492a14.069,14.069,0,0,1-.23-2.181v-.574h0a6.5,6.5,0,0,1,.344-2.066,3.271,3.271,0,0,1,2.181-2.526,3.15,3.15,0,0,1,1.492-.23h.344a.422.422,0,0,1,.344.115.877.877,0,0,1,.574.23h0a2.682,2.682,0,0,1,.8.8s.459.574,1.148,1.607c.344.459.8,1.033,1.263,1.722.574.689,1.148,1.492,1.837,2.411a16.432,16.432,0,0,1,1.263,1.722c1.837,2.526,3.674,4.822,4.133,5.4,2.64,3.674,9.644,15.5,9.644,15.5l8.151.344a5.535,5.535,0,0,1,3.444,1.492c2.87,2.755,9.184,8.61,9.988,9.414,0,.344,4.937,2.641,8.61,4.707,2.755,1.148,7.807,5.166,7.807,5.166a10.494,10.494,0,0,1,2.3,2.755c1.607,3.559,5.74,31.916,8.266,49.137C369.248,561.836,369.248,561.951,369.248,562.066Z" transform="translate(-183.377 -388.594)" fill="#ffb27d"/>
      <path id="Path_105" d="M316.7,485s7.577,12.4,8.61,12.973,4.937,1.378,5.4,0S316.7,485,316.7,485Z" transform="translate(-179.507 -384.775)" fill="#efa26f"/>
      <path id="Path_106" d="M352.132,504.773h0s-5.166-4.133-7.922-5.281c-3.444-1.952-7.922-4.018-8.61-4.592.8.918,6.429,7.348,8.61,7.807C346.277,503.166,350.64,504.314,352.132,504.773Z" transform="translate(-176.709 -383.309)" fill="#efa26f"/>
      <path id="Path_107" d="M311.3,527.284V508.8s4.363,7.348,4.707,11.366S314.285,530.728,311.3,527.284Z" transform="translate(-180.307 -381.251)" fill="#efa26f"/>
      <path id="Path_108" d="M297.787,466.792a29.657,29.657,0,0,1-2.181-4.248,1.992,1.992,0,0,1,.344-1.607,2.767,2.767,0,0,1,1.148-1.148,2.877,2.877,0,0,1,.8-.459,3.351,3.351,0,0,1,1.033-.23,1.417,1.417,0,0,1,.918.459h0a28.648,28.648,0,0,1,2.411,4.018,2.1,2.1,0,0,1-.344,2.526l-.344.23-1.607,1.148a1.531,1.531,0,0,1-2.066-.574C297.787,466.907,297.787,466.907,297.787,466.792Z" transform="translate(-182.637 -388.609)" fill="#ffd3b6"/>
      <path id="Path_109" d="M297.787,466.674a29.658,29.658,0,0,1-2.181-4.248,1.992,1.992,0,0,1,.344-1.607c.115-.115.23-.115.344-.23a2.878,2.878,0,0,1,.8-.459,3.353,3.353,0,0,1,1.033-.23,1.417,1.417,0,0,1,.918.459h0a28.645,28.645,0,0,1,2.411,4.018,2.51,2.51,0,0,1,.115,1.837l-1.607,1.148a1.531,1.531,0,0,1-2.066-.574C297.787,466.788,297.787,466.788,297.787,466.674Z" transform="translate(-182.637 -388.491)" fill="#ffc197"/>
      <path id="Path_110" d="M346.022,557.824l-14.7,7.577h-9.759c-2.3-1.607-14.58-9.873-19.632-16.073C300.9,548.065,297,536.7,293.9,527.4h0c.344,1.263,8.84,19.173,11.251,21.124s14.925,13.891,18.369,13.777,21.239-4.248,22.5-4.477Z" transform="translate(-182.883 -378.497)" fill="#efa26f"/>
      <path id="Path_88-2" data-name="Path 88" d="M365.611,548.615c0,.115-.115.115-.115.23a2.51,2.51,0,0,1-.344.574A25.71,25.71,0,0,1,353.9,561.7c-11.366,6.2-27.094,4.363-38,1.722l1.148-.574a6.081,6.081,0,0,0,1.148-.689c.344-.115.574-.344.918-.459,1.722-.919,4.018-2.067,6.774-3.33h0c11.6-5.625,29.964-13.088,39.608-9.873A.112.112,0,0,0,365.611,548.615Z" transform="translate(-179.625 -375.488)" fill="#f2f7ff"/>
      <path id="Path_112" d="M290.83,499.738h0c.918-.344,2.181-.574,2.755.459.918,1.607-2.526,15.5-2.985,17.221Z" transform="translate(-183.371 -382.636)" fill="#efa26f"/>
      <path id="Path_113" d="M291.044,493.2l-.344,8.381a4.555,4.555,0,0,0,2.755-.459C294.6,500.433,294.029,493.085,291.044,493.2Z" transform="translate(-183.357 -383.561)" fill="#ffc197"/>
      <path id="Path_114" d="M265.278,540.157c-5.051,1.033-16.073-2.985-16.073-2.985l1.722-16.991-12.4,14.121c-6.314-2.3-16.188-8.5-21.928-12.284,14.925-1.607,26.176-16.417,26.176-16.417a127.842,127.842,0,0,0,22.158,8.955C264.933,524.773,265.278,540.157,265.278,540.157Z" transform="translate(-194.328 -381.725)" fill="#f2f7ff"/>
      <circle id="Ellipse_16" cx="2.067" cy="2.067" r="2.067" transform="translate(36.118 145.115) rotate(-89.47)" fill="#f99746"/>
      <path id="Icon_awesome-store" data-name="Icon awesome-store" d="M18.182,3.582,16.222.453A.967.967,0,0,0,15.4,0H3.2a.967.967,0,0,0-.818.453L.425,3.582A2.694,2.694,0,0,0,2.2,7.7a3.138,3.138,0,0,0,.414.027,2.982,2.982,0,0,0,2.229-1,2.984,2.984,0,0,0,4.457,0,2.984,2.984,0,0,0,4.457,0,2.992,2.992,0,0,0,2.229,1A3.1,3.1,0,0,0,16.4,7.7,2.691,2.691,0,0,0,18.182,3.582ZM15.993,8.7a3.832,3.832,0,0,1-.891-.115V11.6H3.505V8.583a4,4,0,0,1-.891.115,4.075,4.075,0,0,1-.544-.036,3.8,3.8,0,0,1-.5-.109V14.5a.965.965,0,0,0,.966.966H16.071a.965.965,0,0,0,.966-.966V8.552a3.083,3.083,0,0,1-.5.109A4.2,4.2,0,0,1,15.993,8.7Z" transform="translate(81.631 37.886)" fill="#ffa99f"/>
    </g>
    <g id="Group_1060" data-name="Group 1060" transform="translate(-155.939 -31.076) rotate(-15)">
      <g id="Group_771-2" data-name="Group 771" transform="translate(290.474 177.989)">
        <path id="Path_112-2" data-name="Path 112" d="M15.021,0A15.021,15.021,0,1,1,0,15.021,15.021,15.021,0,0,1,15.021,0Z" transform="translate(0)" fill="#fc7d6e"/>
      </g>
      <path id="Icon_awesome-book-open" data-name="Icon awesome-book-open" d="M12.1,2.251a12.4,12.4,0,0,0-5.153,1.24.343.343,0,0,0-.162.294V11.9a.353.353,0,0,0,.519.3,13.609,13.609,0,0,1,4.88-1.047.7.7,0,0,0,.67-.684V2.936A.7.7,0,0,0,12.1,2.251ZM5.907,3.491A12.407,12.407,0,0,0,.754,2.251.7.7,0,0,0,0,2.936v7.539a.7.7,0,0,0,.67.684,13.608,13.608,0,0,1,4.881,1.048.352.352,0,0,0,.518-.3V3.781A.336.336,0,0,0,5.907,3.491Z" transform="translate(298.954 186.193)" fill="#fff"/>
    </g>
    <g id="Group_1068" data-name="Group 1068" transform="matrix(0.961, -0.276, 0.276, 0.961, -2.04, 123.076)">
      <g id="Group_771-3" data-name="Group 771" transform="translate(290.474 177.989)">
        <path id="Path_112-3" data-name="Path 112" d="M14.989,0A14.989,14.989,0,1,1,0,14.989,14.989,14.989,0,0,1,14.989,0Z" transform="translate(0)" fill="#fc7d6e"/>
      </g>
      <path id="Icon_awesome-sticky-note" data-name="Icon awesome-sticky-note" d="M9.231,10.771h4.024V2.96a.708.708,0,0,0-.71-.71H.71A.708.708,0,0,0,0,2.96V14.795a.708.708,0,0,0,.71.71H8.521V11.481A.712.712,0,0,1,9.231,10.771ZM13.048,12.4l-2.9,2.9a.71.71,0,0,1-.5.207H9.468V11.718h3.787v.18A.708.708,0,0,1,13.048,12.4Z" transform="translate(298.836 184.101)" fill="#fff"/>
    </g>
    <g id="Group_1094" data-name="Group 1094" transform="matrix(0.961, -0.276, 0.276, 0.961, -58.399, 59.151)">
      <g id="Group_771-4" data-name="Group 771" transform="translate(290.474 177.989)">
        <path id="Path_112-4" data-name="Path 112" d="M16.315,0A16.315,16.315,0,1,1,0,16.315,16.315,16.315,0,0,1,16.315,0Z" transform="translate(0)" fill="#fc7d6e"/>
      </g>
      <path id="Icon_material-toys" data-name="Icon material-toys" d="M12.778,12.778a5.639,5.639,0,0,1,11.278,0Zm0,0a5.689,5.689,0,0,1-5.639,5.639A5.689,5.689,0,0,1,1.5,12.778Zm0,0A5.689,5.689,0,0,1,7.139,7.139,5.689,5.689,0,0,1,12.778,1.5Zm0,0a5.639,5.639,0,0,1,0,11.278Z" transform="translate(297.902 178.938) rotate(16)" fill="#fff"/>
    </g>
    <g id="Group_1061" data-name="Group 1061" transform="matrix(0.966, 0.259, -0.259, 0.966, -114.49, -50.032)">
      <g id="Group_771-5" data-name="Group 771" transform="translate(290.474 177.989)">
        <path id="Path_112-5" data-name="Path 112" d="M15.025,0A15.025,15.025,0,1,1,0,15.025,15.025,15.025,0,0,1,15.025,0Z" transform="translate(0)" fill="#fc7d6e"/>
      </g>
      <path id="Icon_map-clothing-store" data-name="Icon map-clothing-store" d="M17.923,8.546a.386.386,0,0,1-.068.309l-1.937,2.882a.431.431,0,0,1-.349.173,1,1,0,0,1-.176-.018l-1.553-.381V18.34a.345.345,0,0,1-.359.359H5.934a.345.345,0,0,1-.359-.359V11.511L4.18,11.9a.329.329,0,0,1-.392-.155L1.866,8.866a.362.362,0,0,1-.05-.3.35.35,0,0,1,.2-.23L5.934,6.48h1.8a.343.343,0,0,1,.359.359C8.09,7.58,9.129,8.1,9.869,8.1s1.815-.521,1.815-1.265a.345.345,0,0,1,.359-.359h1.8L17.722,8.3a.387.387,0,0,1,.2.248Z" transform="translate(295.632 180.425)" fill="#f9f9f9"/>
    </g>
    <g id="Group_1062" data-name="Group 1062" transform="translate(-115.612 -191.421) rotate(23)">
      <g id="Group_771-6" data-name="Group 771" transform="translate(290.474 177.989)">
        <path id="Path_112-6" data-name="Path 112" d="M12.119,0A12.119,12.119,0,1,1,0,12.119,12.119,12.119,0,0,1,12.119,0Z" transform="translate(0)" fill="#fc7d6e"/>
      </g>
      <path id="Icon_awesome-pencil-alt" data-name="Icon awesome-pencil-alt" d="M11.445,3.27l-1.06,1.06a.276.276,0,0,1-.391,0L7.444,1.778a.276.276,0,0,1,0-.391L8.5.328a1.106,1.106,0,0,1,1.561,0l1.381,1.381A1.1,1.1,0,0,1,11.445,3.27ZM6.533,2.3.5,8.333.01,11.126a.552.552,0,0,0,.639.639l2.793-.49L9.478,5.239a.276.276,0,0,0,0-.391L6.926,2.3a.279.279,0,0,0-.393,0ZM2.854,7.816a.32.32,0,0,1,0-.455l3.54-3.54a.322.322,0,1,1,.455.455l-3.54,3.54a.32.32,0,0,1-.455,0Zm-.83,1.933h1.1v.834l-1.483.26L.93,10.128l.26-1.483h.834Z" transform="translate(296.707 184.219)" fill="#fff"/>
    </g>
    <g id="Group_1067" data-name="Group 1067" transform="matrix(0.966, 0.259, -0.259, 0.966, 53.63, -166.43)">
      <g id="Group_771-7" data-name="Group 771" transform="translate(290.474 177.989)">
        <path id="Path_112-7" data-name="Path 112" d="M11.441,0A11.441,11.441,0,1,1,0,11.441,11.441,11.441,0,0,1,11.441,0Z" transform="translate(0)" fill="#fc7d6e"/>
      </g>
      <path id="Icon_metro-headphones" data-name="Icon metro-headphones" d="M5.968,8.723H5.213v5.285h.755a.379.379,0,0,0,.377-.377V9.1a.379.379,0,0,0-.377-.377Zm5.285,0a.379.379,0,0,0-.377.377v4.53a.379.379,0,0,0,.377.377h.755V8.723Zm3.4-.755A6.04,6.04,0,1,0,2.932,10.031a2.643,2.643,0,0,0,1.9,3.95V8.75A2.626,2.626,0,0,0,3.8,9.132a4.907,4.907,0,1,1,9.621,0,2.627,2.627,0,0,0-1.036-.382v5.231a2.643,2.643,0,0,0,1.9-3.95,6.028,6.028,0,0,0,.362-2.063Z" transform="translate(293.27 180.805)" fill="#fff"/>
    </g>
  </g>
</svg>
