<svg xmlns="http://www.w3.org/2000/svg" width="335.06" height="313.088" viewBox="0 0 335.06 313.088">
  <g id="Group_1085" data-name="Group 1085" transform="translate(-33.181 -157.239)">
    <path id="Path_84" data-name="Path 84" d="M366.646,246.431C339.093,258.6,322.79,280.3,309.588,309.574c0,.115-.115.115-.115.23a2.512,2.512,0,0,1-.344.574,25.71,25.71,0,0,1-11.251,12.284c-11.366,6.2-27.094,4.363-38,1.722a102.111,102.111,0,0,1-12.514-3.789c-.23-.115-.459-.115-.689-.23-23.42-7.118-15.384,15.5-53.155,19.861a72.416,72.416,0,0,1-10.1.344h0c-19.287-.8-42.134-8.955-59.814-16.647-9.873-4.363-18.254-8.5-23.306-11.251a27.984,27.984,0,0,1-11.94-11.71c-10.218-18.828-2.755-43.167,3.559-57.4a31.657,31.657,0,0,0-1.148-27.668c-4.937-9.3-13.777-19.747-22.617-30.309s-9.184-39.493-8.84-45.578c11.366-190.348,279.9-91.615,319.046-45.348C406.254,127.607,394.429,234.032,366.646,246.431Z" transform="translate(-26.047 129.713)" fill="#ffeae8"/>
    <g id="Group_1095" data-name="Group 1095" transform="translate(-16.599 2.804)">
      <g id="Group_771" data-name="Group 771" transform="translate(152.819 199.678)">
        <g id="_3934978" data-name="3934978">
          <g id="Group_772" data-name="Group 772" transform="translate(0 0)">
            <path id="Rectangle_203" d="M269.161,397.7h81.987a20.077,20.077,0,0,1,20.161,20.161V607.819a20.077,20.077,0,0,1-20.161,20.161H269.161A20.077,20.077,0,0,1,249,607.819V417.861A20.077,20.077,0,0,1,269.161,397.7Z" transform="translate(-249 -397.7)" fill="gray"/>
            <path id="Path_91" d="M361.912,412.172V605.715a11.951,11.951,0,0,1-11.872,11.872H263.572A11.951,11.951,0,0,1,251.7,605.715V412.172A11.951,11.951,0,0,1,263.572,400.3H350.04A11.807,11.807,0,0,1,361.912,412.172Z" transform="translate(-245.652 -394.476)" fill="#fff"/>
            <path id="Rectangle_204" d="M271.524,398.3h35.393a5.931,5.931,0,0,1,5.824,5.824h0a5.931,5.931,0,0,1-5.824,5.824H271.524a5.93,5.93,0,0,1-5.824-5.824h0A5.931,5.931,0,0,1,271.524,398.3Z" transform="translate(-228.292 -396.956)" fill="gray"/>
          </g>
          <g id="Group_774" data-name="Group 774" transform="translate(16.295 63.346)">
            <path id="Path_194" data-name="Path 194" d="M2.686,0H26.848a2.686,2.686,0,0,1,2.686,2.686V26.848a2.686,2.686,0,0,1-2.686,2.686H2.686A2.686,2.686,0,0,1,0,26.848V2.686A2.686,2.686,0,0,1,2.686,0Z" fill="#ffeae8"/>
            <path id="Path_3970" data-name="Path 3970" d="M2.686,0H26.848a2.686,2.686,0,0,1,2.686,2.686V26.848a2.686,2.686,0,0,1-2.686,2.686H2.686A2.686,2.686,0,0,1,0,26.848V2.686A2.686,2.686,0,0,1,2.686,0Z" transform="translate(0 36.304)" fill="#ffeae8"/>
            <path id="Path_3969" data-name="Path 3969" d="M2.4,0H89.968a2.4,2.4,0,0,1,2.4,2.4V27.134a2.4,2.4,0,0,1-2.4,2.4H2.4a2.4,2.4,0,0,1-2.4-2.4V2.4A2.4,2.4,0,0,1,2.4,0Z" transform="translate(47.297)" fill="#fc7d6e"/>
            <rect id="Rectangle_206" data-name="Rectangle 206" width="52.405" height="2.598" rx="0.7" transform="translate(82.064 8.837)" fill="#fff"/>
            <rect id="Rectangle_207" data-name="Rectangle 207" width="52.405" height="2.598" rx="0.7" transform="translate(82.064 14.529)" fill="#fff"/>
            <rect id="Rectangle_208" data-name="Rectangle 208" width="52.405" height="2.598" rx="0.7" transform="translate(82.064 19.725)" fill="#fff"/>
            <path id="Path_141" data-name="Path 141" d="M363.315,170.09h0a10.6,10.6,0,0,1-10.6-10.6h0a10.6,10.6,0,0,1,10.6-10.6h0a10.6,10.6,0,0,1,10.6,10.6h0A10.6,10.6,0,0,1,363.315,170.09Z" transform="translate(-299.827 -145.133)" fill="#ffa99f"/>
            <path id="Path_142" data-name="Path 142" d="M361.89,162.832v1.626h-2.05V162.92a8.572,8.572,0,0,1-3.729-1.043l1.131-2.492a7.069,7.069,0,0,0,3.358.954c.972,0,1.326-.194,1.326-.548,0-1.29-5.638-.3-5.6-4.1,0-1.644,1.22-3.022,3.535-3.34V150.76h2.05v1.555a7.619,7.619,0,0,1,2.952.866l-1.06,2.492a6.292,6.292,0,0,0-2.828-.778c-1.008,0-1.326.283-1.326.636,0,1.22,5.638.247,5.6,4.012C365.3,161.1,364.152,162.461,361.89,162.832Z" transform="translate(-297.218 -143.69)" fill="#fff"/>
            <path id="Path_193" data-name="Path 193" d="M2.4,0H89.968a2.4,2.4,0,0,1,2.4,2.4V27.134a2.4,2.4,0,0,1-2.4,2.4H2.4a2.4,2.4,0,0,1-2.4-2.4V2.4A2.4,2.4,0,0,1,2.4,0Z" transform="translate(47.297 36.304)" fill="#fc7d6e"/>
            <rect id="Rectangle_210" data-name="Rectangle 210" width="52.405" height="2.598" rx="0.7" transform="translate(82.064 45.123)" fill="#fff"/>
            <rect id="Rectangle_211" data-name="Rectangle 211" width="52.405" height="2.598" rx="0.7" transform="translate(82.064 50.832)" fill="#fff"/>
            <rect id="Rectangle_212" data-name="Rectangle 212" width="52.405" height="2.598" rx="0.7" transform="translate(82.064 56.029)" fill="#fff"/>
            <path id="Path_143" data-name="Path 143" d="M363.315,190.63h0a10.6,10.6,0,0,1-10.6-10.6h0a10.6,10.6,0,0,1,10.6-10.6h0a10.6,10.6,0,0,1,10.6,10.6h0a10.6,10.6,0,0,1-10.6,10.6Z" transform="translate(-299.827 -129.369)" fill="#ffa99f"/>
            <path id="Path_144" data-name="Path 144" d="M358.921,175.764a2.05,2.05,0,1,1,2.05,2.05A2.05,2.05,0,0,1,358.921,175.764Zm-2.81.46a4.808,4.808,0,0,0,.672,2.581c.212.371.442.725.636,1.1l3.535,6.328,2.3-4.154c.619-1.1,1.273-2.174,1.909-3.252a4.862,4.862,0,1,0-9.049-2.6Z" transform="translate(-297.219 -127.777)" fill="#fff"/>
          </g>
        </g>
      </g>
      <g id="Group_1084" data-name="Group 1084" transform="translate(126.78 192)">
        <g id="Path_3971" data-name="Path 3971" transform="translate(0 0)" fill="#fff">
          <path d="M 26.43155097961426 52.36310195922852 C 22.93059158325195 52.36310195922852 19.53462028503418 51.67753982543945 16.33797073364258 50.32548141479492 C 13.25012111663818 49.0194206237793 10.47685050964355 47.14958953857422 8.095180511474609 44.76792144775391 C 5.713510990142822 42.38624954223633 3.84368109703064 39.61297988891602 2.537621021270752 36.52513122558594 C 1.185560941696167 33.3284797668457 0.5000009536743164 29.93251037597656 0.5000009536743164 26.43155097961426 C 0.5000009536743164 22.93059158325195 1.185560941696167 19.53462028503418 2.537621021270752 16.33797073364258 C 3.84368109703064 13.25012111663818 5.713510990142822 10.47685050964355 8.095180511474609 8.095180511474609 C 10.47685050964355 5.713510990142822 13.25012111663818 3.84368109703064 16.33797073364258 2.537621021270752 C 19.53462028503418 1.185560941696167 22.93059158325195 0.5000009536743164 26.43155097961426 0.5000009536743164 C 29.93251037597656 0.5000009536743164 33.3284797668457 1.185560941696167 36.52513122558594 2.537621021270752 C 39.61297988891602 3.84368109703064 42.38624954223633 5.713510990142822 44.76792144775391 8.095180511474609 C 47.14958953857422 10.47685050964355 49.0194206237793 13.25012111663818 50.32548141479492 16.33797073364258 C 51.67753982543945 19.53462028503418 52.36310195922852 22.93059158325195 52.36310195922852 26.43155097961426 C 52.36310195922852 29.93251037597656 51.67753982543945 33.3284797668457 50.32548141479492 36.52513122558594 C 49.0194206237793 39.61297988891602 47.14958953857422 42.38624954223633 44.76792144775391 44.76792144775391 C 42.38624954223633 47.14958953857422 39.61297988891602 49.0194206237793 36.52513122558594 50.32548141479492 C 33.3284797668457 51.67753982543945 29.93251037597656 52.36310195922852 26.43155097961426 52.36310195922852 Z" stroke="none"/>
          <path d="M 26.43155097961426 1 C 22.99787139892578 1 19.66744232177734 1.672271728515625 16.53274917602539 2.998130798339844 C 13.50450134277344 4.278972625732422 10.78464126586914 6.112819671630859 8.44873046875 8.44873046875 C 6.112819671630859 10.78464126586914 4.278972625732422 13.50450134277344 2.998130798339844 16.53274917602539 C 1.672271728515625 19.66744232177734 1 22.99787139892578 1 26.43155097961426 C 1 29.86523056030273 1.672271728515625 33.19566345214844 2.998130798339844 36.33035278320312 C 4.278972625732422 39.35860061645508 6.112819671630859 42.07846069335938 8.44873046875 44.41437149047852 C 10.78464126586914 46.75028228759766 13.50450134277344 48.58412933349609 16.53274917602539 49.86497116088867 C 19.66744232177734 51.19083023071289 22.99787139892578 51.86310195922852 26.43155097961426 51.86310195922852 C 29.86523056030273 51.86310195922852 33.19566345214844 51.19083023071289 36.33035278320312 49.86497116088867 C 39.35860061645508 48.58412933349609 42.07846069335938 46.75028228759766 44.41437149047852 44.41437149047852 C 46.75028228759766 42.07846069335938 48.58412933349609 39.35860061645508 49.86497116088867 36.33035278320312 C 51.19083023071289 33.19566345214844 51.86310195922852 29.86523056030273 51.86310195922852 26.43155097961426 C 51.86310195922852 22.99787139892578 51.19083023071289 19.66744232177734 49.86497116088867 16.53274917602539 C 48.58412933349609 13.50450134277344 46.75028228759766 10.78464126586914 44.41437149047852 8.44873046875 C 42.07846069335938 6.112819671630859 39.35860061645508 4.278972625732422 36.33035278320312 2.998130798339844 C 33.19566345214844 1.672271728515625 29.86523056030273 1 26.43155097961426 1 M 26.43155097961426 0 C 41.02928924560547 0 52.86310195922852 11.83381271362305 52.86310195922852 26.43155097961426 C 52.86310195922852 41.02928924560547 41.02928924560547 52.86310195922852 26.43155097961426 52.86310195922852 C 11.83381271362305 52.86310195922852 0 41.02928924560547 0 26.43155097961426 C 0 11.83381271362305 11.83381271362305 0 26.43155097961426 0 Z" stroke="none" fill="#707070"/>
        </g>
        <path id="Icon_awesome-check-circle" data-name="Icon awesome-check-circle" d="M52.942,26.752A26.19,26.19,0,1,1,26.752.563,26.189,26.189,0,0,1,52.942,26.752ZM23.723,40.619,43.154,21.188a1.69,1.69,0,0,0,0-2.389l-2.389-2.389a1.69,1.69,0,0,0-2.39,0L22.528,32.256l-7.4-7.4a1.69,1.69,0,0,0-2.39,0L10.35,27.247a1.69,1.69,0,0,0,0,2.389L21.333,40.619a1.69,1.69,0,0,0,2.39,0Z" transform="translate(-0.078 -0.55)" fill="#fc7d6e"/>
      </g>
    </g>
  </g>
</svg>
